<svg width="34" height="34" viewBox="0 0 34 34" fill="none" xmlns="http://www.w3.org/2000/svg">
<path d="M15.1298 27.8798C17.9199 27.8765 20.6316 26.9567 22.8478 25.2618L28.7298 31.1438C29.0437 31.4641 29.4714 31.6474 29.9198 31.6538C30.1423 31.6535 30.3625 31.6081 30.567 31.5205C30.7715 31.4328 30.9561 31.3047 31.1098 31.1438C31.2692 30.9858 31.3956 30.7978 31.4819 30.5906C31.5682 30.3834 31.6127 30.1612 31.6127 29.9368C31.6127 29.7124 31.5682 29.4902 31.4819 29.283C31.3956 29.0759 31.2692 28.8878 31.1098 28.7298L25.2618 22.8308C26.9965 20.54 27.9057 17.7301 27.842 14.8573C27.7782 11.9846 26.7452 9.21776 24.9106 7.00619C23.076 4.79462 20.5476 3.2682 17.7361 2.67483C14.9246 2.08145 11.995 2.45598 9.42322 3.73757C6.8514 5.01917 4.78837 7.13256 3.56916 9.73454C2.34995 12.3365 2.04618 15.2742 2.70717 18.0706C3.36817 20.867 4.95511 23.3578 7.21027 25.1386C9.46544 26.9193 12.2564 27.8853 15.1298 27.8798ZM15.1298 5.77981C16.9798 5.77982 18.7882 6.32862 20.3262 7.35676C21.8641 8.38491 23.0625 9.84618 23.7697 11.5557C24.4769 13.2651 24.661 15.146 24.2989 16.9602C23.9367 18.7744 23.0446 20.4403 21.7352 21.7473C20.4259 23.0542 18.7583 23.9434 16.9435 24.3022C15.1286 24.6611 13.2481 24.4735 11.5399 23.7632C9.83174 23.0529 8.37265 21.8519 7.34731 20.312C6.32196 18.7722 5.77645 16.9628 5.77982 15.1128C5.7888 12.6374 6.77731 10.2661 8.52932 8.51731C10.2813 6.76848 12.6544 5.78429 15.1298 5.77981Z" fill="#555555"/>
</svg>
